# xmcd CD database file
# Copyright (C) 1995-1998 Ti Kan
#
# Track frame offsets:
#	150
#	12050
#	23025
#	32920
#	45582
#	57465
#	69052
#	80812
#	94215
#	104927
#
# Disc length: 1548 seconds
#
# Revision: 1
# Processed by: cddbd v1.4b41PL2 Copyright (c) Steve Scherf et al.
# Submitted via: CDex 1.30Release
#
DISCID=80060a0a
DTITLE=George Jones - Inducted Into The Hall of Fame 1992
DYEAR=1999
DGENRE=Country
TTITLE0=White Lightning
TTITLE1=Tender Years
TTITLE2=I'm A People
TTITLE3=She Thinks I Still Care
TTITLE4=Milwaukee, Here I Come (w Brenda Carter)
TTITLE5=The Window Up Above
TTITLE6=We Must Have Been Out of Our Minds (w Melba Montgomery)
TTITLE7=Things Have Gone to Pieces
TTITLE8=Sometimes You Just Can't Win
TTITLE9=Old Brush Arbors
EXTD=YEAR: 1999 ID3G:   2
EXTT0=
EXTT1=
EXTT2=
EXTT3=
EXTT4=
EXTT5=
EXTT6=
EXTT7=
EXTT8=
EXTT9=
PLAYORDER=
